<svg xmlns="http://www.w3.org/2000/svg" xmlns:xlink="http://www.w3.org/1999/xlink" width="500" zoomAndPan="magnify" viewBox="0 0 375 374.999991" height="500" preserveAspectRatio="xMidYMid meet" version="1.0"><defs><clipPath id="c5270b0756"><path d="M 146.773438 0 L 228.523438 0 L 228.523438 74 L 146.773438 74 Z M 146.773438 0 " clip-rule="nonzero"/></clipPath></defs><g clip-path="url(#c5270b0756)"><path fill="#010101" d="M 218.621094 36.28125 L 218.621094 12.261719 C 218.621094 10.390625 217.886719 8.632812 216.554688 7.308594 C 215.238281 6.003906 213.421875 5.257812 211.5625 5.257812 L 202.195312 5.257812 L 202.195312 1.597656 C 202.195312 0.828125 201.5625 0.199219 200.785156 0.199219 C 200.007812 0.199219 199.375 0.828125 199.375 1.597656 L 199.375 5.257812 L 184.121094 5.257812 L 184.121094 1.597656 C 184.121094 0.828125 183.492188 0.199219 182.714844 0.199219 C 181.933594 0.199219 181.304688 0.828125 181.304688 1.597656 L 181.304688 5.257812 L 166.050781 5.257812 L 166.050781 1.597656 C 166.050781 0.828125 165.421875 0.199219 164.640625 0.199219 C 163.863281 0.199219 163.234375 0.828125 163.234375 1.597656 L 163.234375 5.257812 L 153.863281 5.257812 C 152.003906 5.257812 150.1875 6.003906 148.875 7.308594 C 147.539062 8.632812 146.804688 10.390625 146.804688 12.261719 L 146.804688 54.308594 C 146.804688 56.179688 147.539062 57.941406 148.875 59.265625 C 150.1875 60.566406 152.003906 61.316406 153.863281 61.316406 L 189.152344 61.316406 C 192.210938 68.695312 199.527344 73.910156 208.050781 73.910156 C 219.320312 73.910156 228.488281 64.808594 228.488281 53.617188 C 228.488281 46.269531 224.523438 39.84375 218.621094 36.28125 Z M 208.050781 33.324219 C 205.710938 33.324219 203.46875 33.738281 201.371094 34.457031 L 201.371094 25.808594 L 215.800781 25.808594 L 215.800781 34.847656 C 213.410156 33.871094 210.792969 33.324219 208.050781 33.324219 Z M 192.25 40.761719 L 184.121094 40.761719 L 184.121094 25.808594 L 198.554688 25.808594 L 198.554688 35.664062 C 196.125 36.933594 193.980469 38.671875 192.25 40.761719 Z M 166.875 40.761719 L 166.875 25.808594 L 181.304688 25.808594 L 181.304688 40.761719 Z M 181.304688 43.5625 L 181.304688 58.515625 L 166.875 58.515625 L 166.875 43.5625 Z M 149.625 25.808594 L 164.054688 25.808594 L 164.054688 40.761719 L 149.625 40.761719 Z M 150.867188 9.289062 C 151.65625 8.503906 152.746094 8.054688 153.863281 8.054688 L 163.234375 8.054688 L 163.234375 11.496094 C 163.234375 12.269531 163.863281 12.898438 164.640625 12.898438 C 165.421875 12.898438 166.050781 12.269531 166.050781 11.496094 L 166.050781 8.054688 L 181.304688 8.054688 L 181.304688 11.496094 C 181.304688 12.269531 181.933594 12.898438 182.714844 12.898438 C 183.492188 12.898438 184.121094 12.269531 184.121094 11.496094 L 184.121094 8.054688 L 199.375 8.054688 L 199.375 11.496094 C 199.375 12.269531 200.007812 12.898438 200.785156 12.898438 C 201.5625 12.898438 202.195312 12.269531 202.195312 11.496094 L 202.195312 8.054688 L 211.5625 8.054688 C 212.679688 8.054688 213.769531 8.503906 214.5625 9.289062 C 215.359375 10.082031 215.800781 11.140625 215.800781 12.261719 L 215.800781 23.007812 L 149.625 23.007812 L 149.625 12.261719 C 149.625 11.140625 150.066406 10.082031 150.867188 9.289062 Z M 150.867188 57.285156 C 150.066406 56.488281 149.625 55.429688 149.625 54.308594 L 149.625 43.558594 L 164.054688 43.558594 L 164.054688 58.515625 L 153.863281 58.515625 C 152.746094 58.515625 151.652344 58.066406 150.867188 57.285156 Z M 184.121094 58.515625 L 184.121094 43.5625 L 190.320312 43.5625 C 188.609375 46.53125 187.613281 49.957031 187.613281 53.617188 C 187.613281 55.308594 187.84375 56.945312 188.238281 58.515625 Z M 208.050781 71.109375 C 198.335938 71.109375 190.433594 63.265625 190.433594 53.617188 C 190.433594 43.96875 198.335938 36.121094 208.050781 36.121094 C 217.765625 36.121094 225.667969 43.96875 225.667969 53.617188 C 225.667969 63.265625 217.765625 71.109375 208.050781 71.109375 Z M 208.050781 71.109375 " fill-opacity="1" fill-rule="nonzero"/></g><path fill="#010101" d="M 214.621094 52.003906 L 209.460938 52.003906 L 209.460938 44.042969 C 209.460938 43.269531 208.828125 42.640625 208.050781 42.640625 C 207.273438 42.640625 206.640625 43.269531 206.640625 44.042969 L 206.640625 53.40625 C 206.640625 54.179688 207.273438 54.804688 208.050781 54.804688 L 214.621094 54.804688 C 215.398438 54.804688 216.027344 54.179688 216.027344 53.40625 C 216.027344 52.632812 215.398438 52.003906 214.621094 52.003906 Z M 214.621094 52.003906 " fill-opacity="1" fill-rule="nonzero"/></svg>