<svg xmlns="http://www.w3.org/2000/svg" xmlns:xlink="http://www.w3.org/1999/xlink" width="500" zoomAndPan="magnify" viewBox="0 0 375 374.999991" height="500" preserveAspectRatio="xMidYMid meet" version="1.0"><defs><clipPath id="f9e6a80913"><path d="M 134.652344 20 L 240.382812 20 L 240.382812 65.25 L 134.652344 65.25 Z M 134.652344 20 " clip-rule="nonzero"/></clipPath></defs><path fill="#040606" d="M 195.402344 24.636719 C 188.609375 24.636719 183.078125 19.117188 183.078125 12.324219 C 183.078125 5.511719 188.609375 -0.0078125 195.402344 -0.0078125 C 202.238281 -0.0078125 207.757812 5.511719 207.757812 12.324219 C 207.757812 19.117188 202.238281 24.636719 195.402344 24.636719 " fill-opacity="1" fill-rule="nonzero"/><g clip-path="url(#f9e6a80913)"><path fill="#040606" d="M 151.804688 59.382812 L 139.289062 32.882812 L 168.746094 32.882812 C 169.289062 32.882812 170.191406 33.492188 170.464844 34.195312 L 179.679688 53.703125 C 174.226562 53.703125 169.347656 53.703125 169.347656 53.703125 C 166.183594 53.703125 163.414062 56.253906 163.40625 59.410156 C 163.40625 59.851562 163.460938 60.28125 163.566406 60.695312 L 153.519531 60.695312 C 152.976562 60.695312 152.074219 60.085938 151.804688 59.371094 Z M 207.035156 65.25 L 240.382812 65.25 C 240.382812 65.25 235.71875 43.5625 224.164062 26.507812 C 220.917969 21.441406 212.441406 16.8125 206.179688 23.914062 C 200.179688 30.707031 194.363281 53.710938 194.363281 53.710938 C 194.363281 53.710938 189.808594 53.710938 184.589844 53.710938 L 174.574219 32.515625 C 173.636719 30.191406 171.148438 28.441406 168.746094 28.441406 L 138.753906 28.441406 C 137.320312 28.441406 136.082031 29.066406 135.339844 30.144531 C 134.558594 31.269531 134.4375 32.75 135 34.195312 L 147.683594 61.050781 C 148.621094 63.382812 151.117188 65.15625 153.519531 65.15625 L 203.4375 65.25 L 216.035156 37.71875 C 216.421875 36.890625 217.378906 36.535156 218.214844 36.910156 C 219.03125 37.285156 219.394531 38.25 219.011719 39.074219 L 207.035156 65.25 " fill-opacity="1" fill-rule="nonzero"/></g></svg>