<svg xmlns="http://www.w3.org/2000/svg" xmlns:xlink="http://www.w3.org/1999/xlink" width="500" zoomAndPan="magnify" viewBox="0 0 375 374.999991" height="500" preserveAspectRatio="xMidYMid meet" version="1.0"><defs><clipPath id="da1aa205e0"><path d="M 149.800781 0 L 225.550781 0 L 225.550781 76.5 L 149.800781 76.5 Z M 149.800781 0 " clip-rule="nonzero"/></clipPath></defs><g clip-path="url(#da1aa205e0)"><path fill="#000000" d="M 221.058594 54.679688 C 220.402344 54.679688 219.871094 54.8125 219.34375 55.074219 C 216.574219 52.050781 213.933594 49.027344 211.164062 46.003906 C 210.898438 45.742188 210.503906 45.609375 210.238281 45.609375 C 202.980469 45.609375 195.726562 45.742188 188.46875 45.742188 L 188.46875 42.191406 L 213.539062 42.324219 C 213.933594 42.324219 214.332031 42.191406 214.460938 41.929688 L 219.34375 36.542969 C 219.871094 36.804688 220.402344 36.9375 221.058594 36.9375 C 223.433594 36.9375 225.28125 35.09375 225.28125 32.730469 C 225.28125 30.363281 223.433594 28.523438 221.058594 28.523438 C 218.683594 28.523438 216.835938 30.363281 216.835938 32.730469 C 216.835938 33.519531 217.101562 34.175781 217.367188 34.699219 L 212.746094 39.695312 L 188.203125 39.5625 L 188.203125 34.4375 L 207.996094 34.570312 C 208.390625 34.570312 208.789062 34.4375 208.921875 34.175781 L 217.101562 25.105469 C 217.628906 25.367188 218.15625 25.5 218.816406 25.5 C 221.191406 25.5 223.039062 23.660156 223.039062 21.292969 C 223.039062 18.929688 221.191406 17.085938 218.816406 17.085938 C 216.441406 17.085938 214.59375 18.929688 214.59375 21.292969 C 214.59375 22.082031 214.859375 22.738281 215.121094 23.398438 L 207.335938 32.070312 L 188.335938 31.808594 L 188.335938 26.550781 L 202.585938 26.550781 C 202.980469 26.550781 203.378906 26.421875 203.511719 26.15625 L 207.203125 22.214844 C 209.449219 19.714844 211.691406 17.351562 213.800781 14.851562 C 214.199219 14.984375 214.460938 14.984375 214.859375 14.984375 C 217.234375 14.984375 219.082031 13.144531 219.082031 10.777344 C 219.082031 8.414062 217.234375 6.570312 214.859375 6.570312 C 212.484375 6.570312 210.636719 8.414062 210.636719 10.777344 C 210.636719 11.699219 211.03125 12.617188 211.558594 13.277344 C 209.449219 15.640625 207.335938 18.007812 205.09375 20.375 L 202.058594 23.921875 L 188.335938 23.921875 L 188.335938 22.214844 L 192.820312 22.214844 C 193.21875 22.214844 193.613281 22.082031 193.746094 21.820312 L 197.441406 17.875 C 199.683594 15.378906 201.925781 13.011719 204.171875 10.515625 C 204.566406 10.648438 204.828125 10.648438 205.226562 10.648438 C 207.601562 10.648438 209.449219 8.808594 209.449219 6.441406 C 209.449219 4.074219 207.601562 2.234375 205.226562 2.234375 C 202.851562 2.234375 201.003906 4.074219 201.003906 6.441406 C 201.003906 7.359375 201.398438 8.28125 201.925781 8.9375 C 199.816406 11.304688 197.703125 13.671875 195.460938 16.035156 L 192.160156 19.585938 L 188.203125 19.585938 L 188.203125 14.984375 C 189.65625 13.40625 190.972656 11.960938 192.292969 10.382812 C 192.691406 10.515625 192.953125 10.515625 193.351562 10.515625 C 195.726562 10.515625 197.570312 8.675781 197.570312 6.308594 C 197.570312 3.941406 195.726562 2.101562 193.351562 2.101562 C 190.972656 2.101562 189.128906 3.941406 189.128906 6.308594 C 189.128906 7.230469 189.523438 8.148438 190.050781 8.808594 C 189.390625 9.464844 188.730469 10.253906 188.070312 10.910156 L 188.070312 1.3125 C 188.070312 0.527344 187.542969 0 186.75 0 L 183.847656 0 C 182.132812 0 180.683594 1.445312 180.683594 3.15625 L 180.683594 9.464844 C 177.382812 10.121094 174.214844 11.4375 171.445312 13.277344 L 166.957031 8.808594 C 166.300781 8.148438 165.507812 7.886719 164.714844 7.886719 C 163.792969 7.886719 163 8.28125 162.472656 8.808594 L 158.382812 12.882812 C 157.722656 13.539062 157.457031 14.328125 157.457031 15.117188 C 157.457031 16.035156 157.855469 16.824219 158.382812 17.351562 L 162.867188 21.820312 C 161.019531 24.710938 159.699219 27.734375 159.042969 31.019531 L 152.972656 31.019531 C 151.257812 31.019531 149.804688 32.464844 149.804688 34.175781 L 149.804688 39.828125 C 149.804688 41.535156 151.257812 42.980469 152.972656 42.980469 L 159.304688 42.980469 C 159.964844 46.269531 161.285156 49.421875 163.132812 52.183594 L 158.644531 56.652344 C 157.984375 57.308594 157.722656 58.097656 157.722656 58.886719 C 157.722656 59.675781 158.117188 60.59375 158.644531 61.121094 L 162.734375 65.195312 C 163.394531 65.851562 164.1875 66.117188 164.980469 66.117188 C 165.902344 66.117188 166.695312 65.722656 167.222656 65.195312 L 171.710938 60.726562 C 174.613281 62.566406 177.648438 63.882812 180.945312 64.539062 L 180.945312 70.847656 C 180.945312 72.558594 182.398438 74.003906 184.113281 74.003906 L 187.015625 74.003906 C 187.808594 74.003906 188.335938 73.476562 188.335938 72.6875 L 188.335938 61.515625 C 189.785156 61.515625 191.238281 61.515625 192.691406 61.515625 L 200.476562 70.191406 C 200.078125 70.847656 199.949219 71.503906 199.949219 72.292969 C 199.949219 74.660156 201.792969 76.5 204.171875 76.5 C 206.546875 76.5 208.390625 74.660156 208.390625 72.292969 C 208.390625 69.929688 206.546875 68.085938 204.171875 68.085938 C 203.511719 68.085938 202.980469 68.21875 202.453125 68.480469 L 194.273438 59.414062 C 194.007812 59.148438 193.613281 59.019531 193.351562 59.019531 C 191.765625 59.019531 190.050781 59.019531 188.46875 59.019531 L 188.46875 57.703125 C 194.140625 57.703125 199.816406 57.703125 205.621094 57.703125 L 213.40625 66.378906 C 213.011719 67.035156 212.878906 67.691406 212.878906 68.480469 C 212.878906 70.847656 214.726562 72.6875 217.101562 72.6875 C 219.476562 72.6875 221.324219 70.847656 221.324219 68.480469 C 221.324219 66.117188 219.476562 64.277344 217.101562 64.277344 C 216.441406 64.277344 215.914062 64.40625 215.386719 64.671875 L 207.203125 55.601562 C 206.941406 55.335938 206.546875 55.207031 206.28125 55.207031 C 200.34375 55.207031 194.539062 55.207031 188.597656 55.207031 L 188.597656 48.503906 C 195.726562 48.503906 202.71875 48.371094 209.84375 48.371094 C 212.484375 51.261719 214.992188 54.023438 217.628906 56.914062 C 217.234375 57.570312 217.101562 58.230469 217.101562 59.019531 C 217.101562 61.382812 218.949219 63.222656 221.324219 63.222656 C 223.699219 63.222656 225.546875 61.382812 225.546875 59.019531 C 225.28125 56.519531 223.433594 54.679688 221.058594 54.679688 Z M 221.191406 31.019531 C 222.117188 31.019531 222.777344 31.679688 222.777344 32.597656 C 222.777344 33.519531 222.117188 34.175781 221.191406 34.175781 C 220.269531 34.175781 219.609375 33.519531 219.609375 32.597656 C 219.609375 31.679688 220.269531 31.019531 221.191406 31.019531 Z M 219.082031 19.714844 C 220.003906 19.714844 220.664062 20.375 220.664062 21.292969 C 220.664062 22.214844 220.003906 22.871094 219.082031 22.871094 C 218.15625 22.871094 217.496094 22.214844 217.496094 21.292969 C 217.496094 20.375 218.15625 19.714844 219.082031 19.714844 Z M 214.992188 9.199219 C 215.914062 9.199219 216.574219 9.859375 216.574219 10.777344 C 216.574219 11.699219 215.914062 12.355469 214.992188 12.355469 C 214.066406 12.355469 213.40625 11.699219 213.40625 10.777344 C 213.40625 9.859375 214.066406 9.199219 214.992188 9.199219 Z M 205.226562 4.863281 C 206.148438 4.863281 206.808594 5.519531 206.808594 6.441406 C 206.808594 7.359375 206.148438 8.019531 205.226562 8.019531 C 204.300781 8.019531 203.640625 7.359375 203.640625 6.441406 C 203.640625 5.519531 204.433594 4.863281 205.226562 4.863281 Z M 205.753906 72.558594 C 205.753906 73.476562 205.09375 74.132812 204.171875 74.132812 C 203.246094 74.132812 202.585938 73.476562 202.585938 72.558594 C 202.585938 71.636719 203.246094 70.980469 204.171875 70.980469 C 205.09375 70.980469 205.753906 71.636719 205.753906 72.558594 Z M 218.554688 68.21875 C 218.554688 69.140625 217.894531 69.796875 216.96875 69.796875 C 216.046875 69.796875 215.386719 69.140625 215.386719 68.21875 C 215.386719 67.300781 216.046875 66.640625 216.96875 66.640625 C 217.894531 66.640625 218.554688 67.429688 218.554688 68.21875 Z M 185.695312 56.785156 C 184.640625 56.652344 183.585938 56.519531 182.53125 56.257812 C 180.417969 55.730469 178.4375 54.941406 176.589844 53.761719 C 174.085938 52.183594 171.839844 50.078125 170.257812 47.449219 C 169.070312 45.609375 168.277344 43.640625 167.75 41.535156 C 167.355469 40.089844 167.222656 38.644531 167.222656 37.066406 C 167.222656 35.488281 167.355469 34.042969 167.75 32.597656 C 168.277344 30.496094 169.070312 28.523438 170.257812 26.683594 C 171.839844 24.1875 173.953125 21.949219 176.589844 20.375 C 178.4375 19.191406 180.417969 18.402344 182.53125 17.875 C 183.585938 17.613281 184.640625 17.480469 185.695312 17.351562 Z M 193.613281 4.863281 C 194.539062 4.863281 195.195312 5.519531 195.195312 6.441406 C 195.195312 7.359375 194.539062 8.019531 193.613281 8.019531 C 192.691406 8.019531 192.03125 7.359375 192.03125 6.441406 C 192.03125 5.519531 192.820312 4.863281 193.613281 4.863281 Z M 185.695312 71.769531 L 184.113281 71.769531 C 183.847656 71.769531 183.585938 71.503906 183.585938 71.242188 L 183.585938 63.882812 C 183.585938 63.222656 183.058594 62.699219 182.53125 62.566406 C 178.835938 61.910156 175.402344 60.464844 172.238281 58.359375 C 171.972656 58.230469 171.710938 58.097656 171.445312 58.097656 C 171.050781 58.097656 170.785156 58.230469 170.519531 58.492188 L 165.242188 63.75 C 165.109375 63.882812 164.980469 63.882812 164.847656 63.882812 C 164.714844 63.882812 164.582031 63.882812 164.453125 63.75 L 160.359375 59.675781 C 160.097656 59.414062 160.097656 59.148438 160.359375 58.886719 L 165.640625 53.628906 C 166.035156 53.234375 166.167969 52.445312 165.769531 51.921875 C 163.660156 48.765625 162.207031 45.347656 161.546875 41.667969 C 161.417969 41.011719 160.890625 40.617188 160.230469 40.617188 L 152.972656 40.617188 C 152.707031 40.617188 152.445312 40.351562 152.445312 40.089844 L 152.445312 34.4375 C 152.445312 34.175781 152.707031 33.914062 152.972656 33.914062 L 160.359375 33.914062 C 161.019531 33.914062 161.546875 33.519531 161.679688 32.859375 C 162.339844 29.179688 163.792969 25.761719 165.902344 22.609375 C 166.300781 22.082031 166.167969 21.425781 165.769531 20.898438 L 160.492188 15.640625 C 160.230469 15.378906 160.230469 15.117188 160.492188 14.851562 L 164.582031 10.777344 C 164.847656 10.515625 165.109375 10.515625 165.375 10.777344 L 170.652344 16.035156 C 171.050781 16.429688 171.839844 16.5625 172.367188 16.167969 C 175.402344 14.0625 178.835938 12.617188 182.660156 11.960938 C 183.320312 11.828125 183.71875 11.304688 183.71875 10.648438 L 183.71875 3.15625 C 183.71875 2.890625 183.980469 2.628906 184.246094 2.628906 L 185.828125 2.628906 L 185.828125 14.984375 C 184.507812 15.117188 183.320312 15.246094 182.132812 15.511719 C 179.757812 16.035156 177.515625 16.957031 175.402344 18.269531 C 172.5 20.109375 170.125 22.476562 168.277344 25.367188 C 166.957031 27.472656 166.035156 29.707031 165.507812 32.070312 C 165.109375 33.648438 164.980469 35.359375 164.980469 37.066406 C 164.980469 38.777344 165.242188 40.484375 165.507812 42.0625 C 166.035156 44.429688 166.957031 46.664062 168.277344 48.765625 C 170.125 51.65625 172.5 54.15625 175.402344 55.863281 C 177.515625 57.179688 179.757812 58.097656 182.132812 58.625 C 183.320312 58.886719 184.640625 59.019531 185.828125 59.148438 L 185.828125 71.769531 Z M 221.058594 60.332031 C 220.136719 60.332031 219.476562 59.675781 219.476562 58.753906 C 219.476562 57.835938 220.136719 57.179688 221.058594 57.179688 C 221.984375 57.179688 222.644531 57.835938 222.644531 58.753906 C 222.644531 59.675781 221.984375 60.332031 221.058594 60.332031 Z M 221.058594 60.332031 " fill-opacity="1" fill-rule="nonzero"/></g></svg>