<svg xmlns="http://www.w3.org/2000/svg" xmlns:xlink="http://www.w3.org/1999/xlink" width="500" zoomAndPan="magnify" viewBox="0 0 375 374.999991" height="500" preserveAspectRatio="xMidYMid meet" version="1.0"><defs><clipPath id="df05053747"><path d="M 150.421875 0 L 223 0 L 223 84 L 150.421875 84 Z M 150.421875 0 " clip-rule="nonzero"/></clipPath></defs><path fill="#000000" d="M 171.632812 62.175781 L 171.890625 67.167969 C 172.636719 63.90625 172.789062 61.839844 172.785156 60.667969 C 172.785156 59.789062 172.707031 59.132812 172.609375 58.648438 L 161.699219 58.648438 C 161.601562 59.125 161.523438 59.78125 161.523438 60.664062 C 161.519531 61.839844 161.671875 63.90625 162.417969 67.167969 L 162.675781 62.175781 Z M 171.632812 62.175781 " fill-opacity="1" fill-rule="nonzero"/><path fill="#000000" d="M 164.34375 73.910156 C 164.507812 74.402344 164.679688 74.910156 164.863281 75.4375 L 169.445312 75.4375 C 169.628906 74.910156 169.800781 74.402344 169.964844 73.910156 Z M 164.34375 73.910156 " fill-opacity="1" fill-rule="nonzero"/><path fill="#000000" d="M 171.585938 57.003906 C 171.425781 56.925781 171.011719 56.761719 170.292969 56.636719 C 169.527344 56.503906 168.492188 56.4375 167.21875 56.4375 L 167.078125 56.4375 C 165.675781 56.4375 164.515625 56.523438 163.726562 56.691406 C 162.898438 56.867188 162.511719 57.085938 162.332031 57.242188 C 162.25 57.3125 162.179688 57.386719 162.09375 57.527344 L 172.210938 57.527344 C 172.050781 57.269531 171.960938 57.199219 171.585938 57.003906 Z M 171.585938 57.003906 " fill-opacity="1" fill-rule="nonzero"/><g clip-path="url(#df05053747)"><path fill="#000000" d="M 150.535156 41.800781 C 150.65625 43.714844 151.292969 45.738281 152.539062 47.667969 C 153.941406 49.851562 156.066406 51.941406 159.054688 53.957031 C 159.539062 54.28125 160.089844 54.4375 160.632812 54.4375 C 161.542969 54.4375 162.433594 54.003906 162.980469 53.195312 C 163.851562 51.902344 163.511719 50.148438 162.214844 49.277344 C 159.695312 47.582031 158.171875 45.988281 157.300781 44.628906 C 156.625 43.5625 156.320312 42.652344 156.210938 41.800781 C 156.179688 41.558594 156.164062 41.316406 156.160156 41.082031 C 156.144531 39.652344 156.75 38.1875 157.601562 36.902344 L 157.601562 43.746094 C 157.691406 43.914062 157.785156 44.078125 157.894531 44.25 C 158.839844 45.730469 160.429688 47.222656 162.613281 48.691406 C 164.226562 49.78125 164.65625 51.976562 163.566406 53.585938 C 162.910156 54.5625 161.8125 55.144531 160.632812 55.144531 C 159.929688 55.144531 159.246094 54.933594 158.660156 54.542969 C 157.042969 53.453125 155.671875 52.335938 154.507812 51.179688 C 154.15625 51.609375 153.835938 52.074219 153.550781 52.566406 C 153.484375 52.675781 153.417969 52.78125 153.355469 52.890625 C 152.148438 55.117188 151.632812 57.71875 151.632812 60.664062 C 151.652344 65.644531 153.039062 71.832031 156.125 80.375 C 156.988281 82.757812 159.621094 83.984375 162.007812 83.125 C 164.390625 82.261719 165.625 79.632812 164.757812 77.253906 C 161.847656 69.273438 160.800781 63.84375 160.820312 60.664062 C 160.816406 58.984375 161.085938 57.984375 161.332031 57.457031 C 161.523438 57.050781 161.679688 56.878906 161.871094 56.707031 C 162.152344 56.464844 162.65625 56.195312 163.582031 56.003906 C 164.492188 55.808594 165.746094 55.726562 167.152344 55.730469 C 168.40625 55.726562 169.535156 55.789062 170.410156 55.941406 C 171.070312 56.054688 171.574219 56.214844 171.914062 56.378906 C 172.429688 56.648438 172.597656 56.792969 172.882812 57.269531 C 173.148438 57.753906 173.488281 58.773438 173.488281 60.664062 C 173.507812 63.84375 172.460938 69.273438 169.546875 77.253906 C 168.683594 79.632812 169.917969 82.261719 172.300781 83.125 C 172.816406 83.308594 173.347656 83.398438 173.867188 83.398438 C 175.746094 83.398438 177.507812 82.242188 178.183594 80.375 C 181.269531 71.832031 182.65625 65.648438 182.675781 60.664062 C 182.671875 58.042969 182.269531 55.707031 181.328125 53.644531 C 181.230469 53.425781 181.121094 53.214844 181.011719 53.007812 C 180.335938 51.730469 179.4375 50.613281 178.40625 49.738281 C 177.859375 49.273438 177.289062 48.886719 176.707031 48.550781 L 176.707031 37.957031 C 176.957031 38.160156 177.214844 38.367188 177.488281 38.574219 C 177.960938 38.929688 178.464844 39.285156 179.007812 39.636719 L 178.726562 40.269531 C 178.570312 40.613281 178.5625 40.996094 178.695312 41.351562 C 178.832031 41.703125 179.097656 41.980469 179.445312 42.132812 L 180.894531 42.773438 C 181.128906 43.964844 181.417969 45.097656 181.773438 46.132812 C 182.296875 47.667969 182.953125 48.992188 183.785156 49.984375 C 184.609375 50.976562 185.664062 51.65625 186.894531 51.71875 C 186.953125 51.71875 187.007812 51.722656 187.0625 51.722656 C 187.078125 51.722656 187.09375 51.722656 187.109375 51.722656 C 188.394531 51.722656 189.300781 50.84375 189.6875 49.859375 C 190.109375 48.859375 190.210938 47.683594 190.214844 46.589844 C 190.214844 45.453125 190.089844 44.40625 190.003906 43.8125 C 192.039062 44.171875 194.257812 44.378906 196.683594 44.378906 C 196.707031 44.378906 196.726562 44.378906 196.746094 44.378906 C 197.042969 44.378906 197.339844 44.375 197.636719 44.371094 C 198.273438 44.359375 198.855469 44.136719 199.320312 43.773438 C 199.023438 50.203125 197.589844 60.203125 199.316406 62.671875 C 199.878906 63.476562 201.949219 63.972656 204.628906 64.203125 L 204.160156 78.632812 C 204.078125 81.066406 205.992188 83.105469 208.429688 83.183594 C 208.476562 83.183594 208.527344 83.183594 208.574219 83.183594 C 210.949219 83.183594 212.90625 81.304688 212.984375 78.921875 L 213.46875 64.136719 C 218.175781 63.734375 222.265625 62.789062 222.414062 61.449219 C 224.582031 41.78125 219.105469 18.445312 208.617188 17.804688 C 204.363281 17.546875 203.59375 18.160156 202.671875 18.863281 C 202.417969 19.058594 202.183594 19.304688 201.964844 19.59375 C 202.132812 18.605469 202.269531 17.644531 202.378906 16.726562 C 203.296875 16.800781 204.242188 16.714844 205.179688 16.453125 C 209.402344 15.261719 211.859375 10.878906 210.667969 6.664062 C 209.476562 2.445312 205.085938 -0.0078125 200.863281 1.183594 C 196.640625 2.371094 194.183594 6.753906 195.375 10.972656 C 195.765625 12.355469 196.503906 13.546875 197.464844 14.484375 C 197.363281 18.277344 196.894531 23.375 195.390625 28.082031 C 195.316406 28.089844 195.242188 28.09375 195.167969 28.09375 C 194.554688 28.089844 193.785156 27.929688 192.726562 27.320312 C 192.128906 26.976562 191.449219 26.480469 190.699219 25.804688 C 190.777344 25.554688 190.714844 25.273438 190.511719 25.082031 L 190.144531 24.734375 C 190.273438 24.113281 189.65625 22.984375 188.585938 21.980469 C 187.519531 20.976562 186.351562 20.425781 185.738281 20.589844 L 185.371094 20.246094 C 185.085938 19.976562 184.636719 19.992188 184.371094 20.273438 L 183.320312 21.386719 C 183.054688 21.671875 183.066406 22.117188 183.351562 22.382812 L 183.480469 22.503906 C 182.460938 23.515625 181.753906 25.039062 181.230469 26.824219 C 180.664062 28.789062 180.339844 31.117188 180.238281 33.550781 C 179.082031 32.59375 178.257812 31.679688 177.71875 30.988281 C 177.402344 30.582031 177.179688 30.253906 177.046875 30.039062 C 176.980469 29.9375 176.9375 29.859375 176.914062 29.820312 C 176.902344 29.800781 176.898438 29.789062 176.894531 29.785156 C 176.628906 29.273438 176.226562 28.878906 175.753906 28.621094 C 175.277344 28.210938 174.65625 27.960938 173.976562 27.960938 L 160.332031 27.960938 C 159.996094 27.960938 159.679688 28.023438 159.382812 28.132812 C 158.855469 28.148438 158.328125 28.308594 157.859375 28.632812 C 157.765625 28.699219 156.789062 29.382812 155.550781 30.59375 C 154.316406 31.808594 152.8125 33.542969 151.734375 35.824219 C 151.023438 37.339844 150.511719 39.117188 150.511719 41.082031 C 150.507812 41.320312 150.519531 41.5625 150.535156 41.800781 Z M 188.386719 49.308594 C 188.054688 50.003906 187.753906 50.289062 187.0625 50.3125 C 187.03125 50.3125 186.996094 50.308594 186.964844 50.308594 C 186.230469 50.269531 185.546875 49.878906 184.871094 49.078125 C 183.863281 47.90625 183.050781 45.886719 182.492188 43.480469 L 187.515625 45.707031 C 187.699219 45.785156 187.890625 45.828125 188.089844 45.828125 C 188.332031 45.828125 188.566406 45.761719 188.773438 45.648438 C 188.789062 45.949219 188.804688 46.265625 188.804688 46.589844 C 188.804688 47.582031 188.6875 48.617188 188.386719 49.308594 Z M 204.277344 52.089844 L 203.855469 50.621094 L 209.832031 49.160156 L 210.070312 50.160156 Z M 198.839844 15.5625 C 199.503906 15.972656 200.226562 16.28125 200.984375 16.484375 C 200.65625 19.230469 200.097656 22.363281 199.144531 25.410156 C 198.609375 26.140625 198.011719 26.789062 197.417969 27.238281 C 197.289062 27.335938 197.164062 27.417969 197.042969 27.496094 C 198.238281 23.324219 198.695312 19.019531 198.839844 15.5625 Z M 184.503906 23.46875 L 184.8125 23.753906 C 183.71875 24.789062 183.625 26.507812 184.625 27.652344 C 186.414062 29.699219 188.144531 31.1875 189.898438 32.203125 C 190.933594 32.804688 191.988281 33.230469 193.039062 33.476562 C 192.757812 33.953125 192.460938 34.417969 192.144531 34.867188 C 192.386719 34.875 192.632812 34.886719 192.863281 34.886719 C 193.203125 34.886719 193.53125 34.875 193.851562 34.859375 C 194.089844 34.484375 194.316406 34.101562 194.535156 33.710938 C 194.71875 33.722656 194.898438 33.730469 195.082031 33.730469 C 194.816406 34.078125 194.542969 34.417969 194.257812 34.742188 C 194.230469 34.773438 194.199219 34.804688 194.171875 34.835938 C 194.894531 34.785156 195.574219 34.699219 196.210938 34.566406 C 196.457031 34.234375 196.699219 33.898438 196.925781 33.554688 C 197.792969 33.375 198.597656 33.074219 199.332031 32.691406 C 199.324219 32.933594 199.316406 33.171875 199.308594 33.410156 C 200.53125 32.6875 201.492188 31.71875 202.242188 30.445312 C 203.570312 28.210938 203.816406 25.382812 203.796875 24.480469 C 203.796875 24.382812 203.796875 24.328125 203.796875 24.3125 C 203.710938 22.367188 205.21875 20.71875 207.160156 20.628906 C 207.214844 20.628906 207.269531 20.625 207.328125 20.625 C 209.214844 20.625 210.765625 22.101562 210.851562 23.988281 C 210.855469 24.023438 210.859375 24.191406 210.859375 24.46875 C 210.855469 25.980469 210.65625 28.335938 209.738281 30.960938 C 208.828125 33.59375 206.867188 37.230469 202.71875 39.589844 C 199.996094 41.148438 196.6875 41.9375 192.890625 41.9375 L 192.863281 41.9375 C 191.953125 41.9375 190.996094 41.890625 190.023438 41.800781 L 188.734375 44.703125 C 188.578125 45.058594 188.160156 45.21875 187.804688 45.0625 L 179.730469 41.488281 C 179.375 41.328125 179.210938 40.914062 179.371094 40.558594 L 181.949219 34.753906 C 182.105469 34.398438 182.523438 34.238281 182.878906 34.394531 L 187.101562 36.265625 C 187.242188 36.0625 187.402344 35.875 187.578125 35.703125 L 183.167969 33.75 C 182.984375 33.671875 182.792969 33.628906 182.59375 33.628906 C 182.230469 33.628906 181.890625 33.769531 181.632812 34.011719 C 181.714844 31.519531 182.03125 29.136719 182.589844 27.214844 C 183.066406 25.519531 183.75 24.214844 184.503906 23.46875 Z M 184.503906 23.46875 " fill-opacity="1" fill-rule="nonzero"/></g><path fill="#000000" d="M 178.414062 16.28125 C 178.539062 16.808594 178.609375 17.347656 178.628906 17.890625 C 178.644531 18.433594 178.609375 18.972656 178.519531 19.511719 C 178.429688 20.046875 178.289062 20.570312 178.097656 21.078125 C 177.90625 21.589844 177.667969 22.074219 177.378906 22.535156 C 177.089844 22.996094 176.761719 23.425781 176.386719 23.824219 C 176.015625 24.21875 175.609375 24.578125 175.164062 24.894531 C 174.722656 25.210938 174.253906 25.480469 173.757812 25.707031 C 173.257812 25.929688 172.746094 26.101562 172.214844 26.226562 C 171.683594 26.351562 171.148438 26.421875 170.601562 26.4375 C 170.058594 26.457031 169.515625 26.421875 168.980469 26.332031 C 168.441406 26.242188 167.917969 26.101562 167.410156 25.910156 C 166.898438 25.71875 166.414062 25.480469 165.949219 25.191406 C 165.488281 24.90625 165.058594 24.574219 164.660156 24.203125 C 164.261719 23.832031 163.90625 23.425781 163.585938 22.980469 C 163.269531 22.539062 163 22.070312 162.773438 21.574219 C 162.550781 21.082031 162.375 20.566406 162.253906 20.039062 C 162.128906 19.507812 162.058594 18.972656 162.039062 18.429688 C 162.023438 17.882812 162.058594 17.34375 162.148438 16.808594 C 162.234375 16.269531 162.375 15.75 162.570312 15.238281 C 162.761719 14.730469 163 14.246094 163.289062 13.785156 C 163.578125 13.320312 163.90625 12.890625 164.277344 12.496094 C 164.652344 12.097656 165.058594 11.742188 165.503906 11.425781 C 165.945312 11.109375 166.414062 10.835938 166.910156 10.613281 C 167.40625 10.390625 167.921875 10.214844 168.453125 10.09375 C 168.984375 9.96875 169.519531 9.898438 170.066406 9.878906 C 170.609375 9.863281 171.148438 9.898438 171.6875 9.988281 C 172.226562 10.074219 172.75 10.214844 173.257812 10.40625 C 173.769531 10.597656 174.253906 10.839844 174.71875 11.125 C 175.179688 11.414062 175.609375 11.742188 176.007812 12.113281 C 176.40625 12.488281 176.761719 12.894531 177.078125 13.335938 C 177.398438 13.777344 177.667969 14.246094 177.894531 14.742188 C 178.117188 15.238281 178.292969 15.75 178.414062 16.28125 Z M 178.414062 16.28125 " fill-opacity="1" fill-rule="nonzero"/><path fill="#000000" d="M 187.203125 37.96875 C 187.042969 39.519531 188.171875 40.90625 189.722656 41.066406 C 190.820312 41.175781 191.867188 41.234375 192.863281 41.234375 C 192.871094 41.234375 192.882812 41.234375 192.890625 41.234375 C 196.738281 41.234375 199.898438 40.390625 202.371094 38.976562 C 206.113281 36.847656 208.097656 33.542969 209.074219 30.730469 C 210.0625 27.894531 210.152344 25.457031 210.15625 24.464844 C 210.15625 24.214844 210.148438 24.0625 210.148438 24.019531 C 210.074219 22.464844 208.75 21.261719 207.191406 21.335938 C 205.636719 21.40625 204.433594 22.722656 204.5 24.273438 C 204.5 24.285156 204.503906 24.351562 204.503906 24.464844 C 204.519531 25.242188 204.339844 28.300781 202.851562 30.800781 C 202.109375 32.0625 201.09375 33.203125 199.566406 34.078125 C 198.035156 34.949219 195.929688 35.585938 192.863281 35.589844 C 192.074219 35.589844 191.222656 35.546875 190.308594 35.453125 C 188.753906 35.292969 187.363281 36.417969 187.203125 37.96875 Z M 187.203125 37.96875 " fill-opacity="1" fill-rule="nonzero"/></svg>